<?xml version="1.0" standalone="no"?>
<!DOCTYPE svg PUBLIC "-//W3C//DTD SVG 20010904//EN"
 "http://www.w3.org/TR/2001/REC-SVG-20010904/DTD/svg10.dtd">
<svg version="1.0" xmlns="http://www.w3.org/2000/svg"
 width="500.000000pt" height="500.000000pt" viewBox="0 0 500.000000 500.000000"
 preserveAspectRatio="xMidYMid meet">
<metadata>
Created by potrace 1.11, written by Peter Selinger 2001-2013
</metadata>
<g transform="translate(0.000000,500.000000) scale(0.100000,-0.100000)"
fill="#000000" stroke="none">
<path d="M2379 4555 c-3 -2 -20 -6 -39 -9 -58 -7 -117 -26 -300 -96 -30 -12
-84 -29 -120 -39 -36 -10 -78 -24 -95 -31 -16 -8 -32 -14 -35 -15 -3 0 -19 -9
-37 -18 -18 -9 -39 -17 -48 -17 -8 0 -15 -5 -15 -11 0 -5 -4 -8 -9 -5 -25 16
-205 -161 -194 -190 2 -6 -3 -17 -12 -24 -13 -11 -15 -10 -9 3 4 12 0 15 -14
14 -16 -1 -21 -9 -22 -37 -2 -72 -4 -81 -17 -76 -7 3 -13 1 -13 -5 0 -6 -4 -8
-8 -5 -4 2 -13 1 -20 -3 -8 -5 -8 -13 3 -33 13 -27 12 -28 -32 -53 -25 -14
-49 -25 -53 -25 -11 0 -66 -63 -94 -109 -27 -43 -33 -68 -21 -95 5 -10 4 -31
-1 -45 -6 -14 -9 -71 -8 -126 1 -55 2 -117 3 -138 0 -28 4 -37 12 -31 9 5 10
2 6 -9 -3 -9 1 -31 10 -49 17 -33 21 -167 9 -278 -6 -53 2 -93 16 -84 7 5 9
-5 6 -25 -3 -21 0 -31 8 -31 18 0 54 -49 55 -74 0 -20 1 -20 8 -1 7 18 9 17
19 -10 6 -17 11 -24 11 -17 2 24 22 11 37 -23 8 -19 25 -42 39 -51 16 -10 30
-35 40 -68 23 -77 55 -216 55 -240 1 -11 7 -34 15 -51 12 -28 13 -27 8 30 -2
33 -8 62 -11 65 -12 9 -15 73 -3 66 12 -8 12 325 0 334 -13 10 34 180 50 180
11 0 33 51 36 80 1 14 5 36 10 50 7 22 6 23 -9 11 -14 -12 -16 -12 -10 3 4 9
0 18 -8 21 -10 4 -14 20 -13 50 2 33 -1 42 -11 38 -10 -4 -14 6 -15 38 -1 24
-2 53 -3 64 -1 11 5 29 11 40 7 11 13 26 13 35 0 13 -1 13 -10 0 -9 -13 -11
-13 -20 0 -13 20 -12 26 4 42 7 8 17 24 20 36 4 12 14 22 22 22 8 0 14 5 14
10 0 6 6 10 13 10 7 0 22 8 33 19 12 10 35 22 52 26 28 6 32 4 32 -13 0 -11 7
-23 16 -26 22 -9 22 -8 26 17 2 13 9 21 19 19 8 -1 25 7 37 18 21 20 37 27 28
12 -5 -9 32 -8 56 3 9 4 22 4 27 1 6 -4 17 4 26 18 21 32 73 52 82 30 4 -11 9
-12 19 -3 8 6 12 15 9 19 -3 5 0 12 6 16 8 4 9 3 5 -4 -4 -7 -3 -12 3 -12 5 0
13 5 16 10 9 15 56 12 74 -4 21 -18 66 -32 57 -17 -4 6 -13 11 -21 11 -8 0
-17 5 -20 10 -12 20 97 -12 126 -36 8 -8 31 -16 50 -20 71 -12 80 -15 73 -26
-5 -7 -3 -8 5 -4 7 5 18 1 25 -10 14 -18 101 -50 90 -32 -7 11 86 1 124 -13
20 -8 23 -7 18 6 -5 14 -4 14 16 0 13 -8 35 -15 50 -15 18 0 33 -8 44 -25 15
-23 63 -38 49 -15 -6 10 9 15 30 10 6 -1 37 -4 70 -6 43 -3 64 -9 73 -21 9
-13 15 -15 20 -6 14 22 61 33 119 27 31 -3 61 -8 65 -10 4 -3 8 0 8 5 0 6 10
9 23 7 12 -3 25 -5 28 -5 12 -2 29 -55 33 -101 2 -25 5 -45 6 -45 1 0 4 -13 5
-30 2 -16 6 -50 8 -75 3 -25 18 -74 35 -110 25 -54 31 -83 37 -170 3 -58 15
-159 25 -225 11 -66 21 -131 23 -145 4 -20 5 -18 6 8 1 22 6 32 17 32 14 0 15
8 9 48 -4 26 -11 49 -15 52 -10 6 -13 31 -11 95 2 65 16 44 32 -48 13 -73 21
-72 38 5 11 47 4 151 -9 143 -5 -3 -2 18 6 47 8 34 10 56 4 64 -13 14 -20 75
-9 68 9 -5 3 36 -15 101 -7 26 -9 69 -4 120 4 44 8 99 9 123 1 23 6 42 11 42
5 0 4 10 -3 21 -8 17 -8 23 1 29 7 5 9 13 5 21 -5 7 -9 36 -10 64 -2 50 -23
115 -36 115 -4 0 -10 16 -13 35 -4 19 -11 35 -17 35 -5 0 -9 6 -8 13 5 25 -13
97 -30 119 -9 13 -18 37 -19 53 -1 18 -12 39 -27 53 -15 12 -23 22 -19 22 3 0
1 6 -5 13 -6 8 -12 24 -14 36 -2 13 -9 26 -17 31 -7 4 -10 13 -6 19 4 6 1 9
-7 5 -10 -3 -16 4 -20 23 -7 38 -48 81 -84 88 -42 9 -58 21 -56 42 1 11 -7 23
-20 28 -12 6 -22 17 -22 25 0 8 -20 27 -44 44 -38 26 -54 29 -140 34 -53 3
-99 10 -103 15 -4 6 -40 12 -80 13 -40 1 -111 7 -158 13 -47 7 -107 14 -134
17 -33 4 -44 9 -35 15 11 7 9 9 -7 9 -11 0 -23 -2 -25 -5z m-784 -325 c-10
-11 -20 -18 -23 -15 -7 6 18 35 31 35 5 0 2 -9 -8 -20z m35 -654 c0 -3 -4 -8
-10 -11 -5 -3 -10 -1 -10 4 0 6 5 11 10 11 6 0 10 -2 10 -4z"/>
<path d="M3178 4343 c5 -21 7 -23 10 -9 2 10 0 22 -6 28 -6 6 -7 0 -4 -19z"/>
<path d="M1494 4258 l-19 -23 23 19 c21 18 27 26 19 26 -2 0 -12 -10 -23 -22z"/>
<path d="M1460 4210 c-6 -11 -8 -20 -6 -20 3 0 10 9 16 20 6 11 8 20 6 20 -3
0 -10 -9 -16 -20z"/>
<path d="M2635 3540 c-3 -5 1 -10 9 -10 9 0 16 5 16 10 0 6 -4 10 -9 10 -6 0
-13 -4 -16 -10z"/>
<path d="M1591 3196 c-7 -8 -9 -21 -5 -27 5 -9 10 -5 16 11 10 28 5 36 -11 16z"/>
<path d="M3056 3109 c2 -4 -4 -8 -13 -7 -40 1 -141 -14 -184 -28 -48 -16 -117
-78 -99 -89 16 -10 12 -25 -5 -19 -8 4 -15 1 -15 -5 0 -6 -15 -28 -34 -48 -29
-34 -33 -44 -31 -90 1 -28 9 -63 18 -76 9 -13 13 -34 10 -46 -3 -12 -1 -27 5
-34 5 -6 12 -21 14 -32 1 -11 6 -22 10 -25 4 -3 10 -32 13 -63 8 -80 14 -95
83 -187 2 -3 9 3 17 13 12 16 13 16 19 1 7 -19 8 -17 -21 -33 -17 -9 -28 -9
-44 0 -18 9 -26 7 -48 -8 -14 -11 -27 -29 -29 -40 -2 -13 -15 -23 -40 -29 -41
-10 -69 -49 -50 -71 8 -10 4 -13 -21 -13 -17 0 -31 -4 -31 -10 0 -5 7 -10 15
-10 10 0 15 -10 15 -30 0 -33 22 -40 49 -16 19 17 61 24 79 13 7 -5 12 -3 12
4 0 15 112 2 122 -15 13 -19 9 -28 -9 -22 -9 4 -19 3 -22 -2 -12 -18 -160 -62
-210 -62 -36 0 -53 -4 -57 -14 -6 -15 -64 -40 -64 -28 0 4 -74 9 -165 10 -162
4 -165 3 -165 -17 0 -12 3 -21 8 -22 29 -3 60 -12 85 -24 40 -20 54 -19 67 5
12 22 40 26 58 8 8 -8 15 -8 27 2 8 7 18 10 22 6 3 -3 1 -6 -6 -6 -7 0 -9 -4
-6 -10 8 -13 65 -13 65 -1 0 5 -8 12 -17 14 -10 3 1 5 25 6 24 0 51 -3 61 -8
27 -15 104 -21 118 -10 7 6 35 12 63 15 28 2 55 6 59 8 4 3 13 1 21 -4 11 -7
10 -11 -4 -26 -11 -10 -15 -25 -12 -39 5 -19 2 -22 -19 -17 -16 3 -25 0 -25
-9 0 -8 -6 -5 -14 7 -16 22 -30 15 -20 -10 5 -12 15 -15 45 -11 31 4 39 2 39
-11 0 -14 7 -15 39 -10 22 3 48 9 58 13 16 6 16 5 4 -10 -12 -15 -12 -17 3
-11 20 8 21 -5 0 -34 -15 -22 -17 -22 -29 -6 -12 16 -13 16 -24 -4 -6 -12 -9
-22 -6 -22 3 0 1 -9 -5 -19 -7 -14 -6 -21 3 -24 9 -4 8 -8 -3 -16 -8 -6 -10
-11 -4 -11 5 0 15 5 22 12 9 9 15 8 27 -8 14 -19 14 -18 15 3 0 13 6 22 13 20
6 -1 11 3 10 10 -1 6 4 14 13 17 10 4 13 2 8 -7 -4 -6 7 3 23 22 29 33 29 33
60 18 32 -17 50 -53 29 -60 -7 -3 -2 -16 13 -38 20 -27 21 -31 5 -19 -10 7
-25 21 -31 29 -7 8 -15 12 -17 10 -3 -3 6 -18 20 -34 20 -23 24 -37 20 -60 -4
-16 -13 -33 -21 -38 -8 -4 -15 -15 -15 -22 0 -8 -3 -14 -7 -14 -19 3 -32 -2
-36 -13 -2 -7 -3 -5 -2 4 2 11 -8 23 -24 31 -25 13 -27 12 -27 -7 1 -12 -4
-20 -11 -19 -8 2 -10 -4 -6 -14 5 -13 1 -15 -21 -11 -16 3 -40 0 -54 -8 -27
-14 -47 -9 -23 5 11 7 11 10 0 17 -7 4 -14 3 -17 -4 -2 -7 -8 -10 -13 -6 -5 3
-12 -9 -16 -27 l-6 -31 -14 23 -14 24 4 -28 c2 -15 0 -30 -4 -33 -5 -3 -9 4
-9 15 0 14 -5 19 -15 15 -8 -4 -15 -1 -15 6 0 6 -4 9 -9 6 -5 -3 -7 -15 -4
-26 3 -13 -1 -22 -11 -26 -23 -9 -32 2 -17 20 8 10 9 16 1 21 -5 3 -10 3 -10
-2 0 -4 -4 -14 -9 -22 -7 -10 -13 -11 -31 -1 -20 10 -21 9 -18 -12 2 -13 9
-22 15 -21 6 2 11 -6 10 -17 -2 -24 -12 -26 -21 -5 -3 9 -12 12 -21 9 -9 -4
-14 -13 -11 -20 6 -17 -6 -18 -21 -3 -7 7 -15 5 -27 -6 -9 -9 -16 -11 -16 -5
0 6 -4 8 -10 5 -5 -3 -10 -2 -10 4 0 5 6 12 13 14 7 4 8 6 1 6 -6 1 -17 -6
-24 -14 -14 -17 -65 -21 -55 -5 3 6 -2 10 -13 10 -26 0 -34 11 -21 27 7 8 8
13 1 13 -5 0 -15 -7 -22 -15 -10 -12 -16 -13 -26 -4 -11 9 -14 7 -14 -7 -1
-17 -2 -17 -20 4 -16 20 -19 20 -22 5 -3 -14 -12 -9 -46 25 -23 23 -42 38 -42
32 0 -20 -36 -9 -68 20 -18 16 -44 33 -58 36 -20 5 -23 11 -18 28 6 19 5 20
-11 6 -17 -14 -18 -13 -12 3 10 27 -2 44 -29 41 -13 -1 -22 2 -18 7 3 5 -1 9
-9 9 -10 0 -14 11 -12 41 2 26 -1 36 -6 28 -6 -10 -9 -11 -9 -1 0 18 -18 15
-23 -5 -4 -16 -5 -16 -6 1 -1 16 -3 16 -17 5 -13 -11 -14 -9 -9 14 6 21 4 27
-9 27 -10 0 -14 -6 -10 -17 5 -17 5 -17 -6 0 -6 9 -8 22 -4 29 5 7 2 9 -9 5
-9 -3 -18 -1 -20 6 -3 9 -8 8 -20 -2 -15 -12 -17 -11 -17 3 0 9 -5 16 -10 16
-6 0 -9 3 -9 8 4 22 -3 33 -18 30 -13 -2 -17 3 -16 17 1 11 0 14 -3 7 -9 -19
-55 54 -47 75 3 10 2 15 -2 10 -5 -4 -17 1 -27 10 -15 14 -14 6 8 -37 40 -82
97 -153 193 -244 29 -28 87 -84 128 -124 43 -43 80 -71 88 -68 9 3 12 0 8 -10
-3 -9 1 -14 13 -14 11 0 26 -5 34 -11 12 -9 11 -10 -7 -6 -33 7 -28 -1 11 -17
19 -8 43 -23 53 -33 10 -10 35 -29 56 -43 20 -14 37 -28 37 -32 0 -4 7 -5 15
-1 10 3 15 1 13 -8 -2 -7 6 -15 17 -17 28 -6 43 -22 20 -22 -17 0 -17 -1 0
-20 10 -11 24 -20 32 -20 7 0 13 -4 13 -9 0 -5 9 -13 20 -16 11 -3 20 -13 20
-22 0 -9 6 -13 15 -9 10 4 15 -1 15 -14 0 -13 -5 -18 -15 -14 -10 4 -15 0 -15
-12 0 -11 4 -15 8 -9 9 12 42 16 42 5 0 -5 3 -17 6 -27 4 -13 3 -15 -4 -4 -7
9 -12 10 -16 2 -4 -6 -2 -12 3 -12 6 -1 16 -2 22 -3 6 0 18 -10 25 -22 12 -18
12 -21 0 -21 -8 0 -12 6 -9 14 4 9 0 11 -11 7 -32 -12 -9 -34 37 -34 22 -1 22
-1 2 -16 -17 -13 -18 -16 -5 -24 21 -13 39 -12 20 1 -10 7 -11 9 -2 7 21 -6
17 -22 -9 -36 l-24 -13 28 4 c31 5 32 4 12 -17 -13 -13 -11 -14 25 -11 22 2
42 -1 45 -6 4 -5 1 -9 -6 -9 -7 0 -10 -3 -6 -6 10 -10 86 38 93 58 4 15 9 16
19 8 16 -13 30 3 19 22 -5 7 -3 8 6 3 8 -5 18 -2 25 8 7 9 23 18 36 19 13 2
32 12 41 23 17 20 17 20 11 -5 -6 -23 -5 -24 10 -11 12 9 15 21 11 35 -6 19
-4 18 14 -4 16 -20 18 -26 6 -28 -17 -4 -18 -19 -1 -25 8 -3 7 -10 -7 -26 -19
-21 -19 -21 4 -21 20 0 22 -2 9 -12 -8 -7 -22 -22 -29 -32 -14 -18 -13 -19 14
-12 26 6 28 5 17 -8 -8 -9 -22 -16 -32 -16 -12 0 -19 -7 -19 -19 0 -11 -4 -23
-10 -26 -5 -3 -9 -16 -8 -28 0 -12 -2 -29 -6 -38 -4 -10 -2 -20 5 -25 9 -5 10
-2 6 9 -5 14 -3 15 19 5 20 -9 27 -9 34 1 4 8 13 10 19 7 6 -4 14 0 17 8 3 9
13 16 21 16 8 0 12 4 9 8 -3 5 0 9 7 10 33 3 52 10 52 20 0 6 4 14 8 18 8 8
12 10 65 19 36 7 36 5 14 -54 -3 -8 -1 -12 5 -8 22 14 -5 -72 -34 -110 -17
-21 -42 -63 -56 -93 -13 -30 -43 -75 -64 -100 -22 -25 -53 -65 -68 -90 -16
-25 -54 -74 -85 -110 -31 -36 -86 -105 -121 -155 -35 -50 -68 -93 -74 -97 -5
-4 524 -8 1178 -8 l1187 0 0 298 c0 297 0 299 -22 319 -61 54 -381 223 -423
223 -17 0 -320 95 -397 124 -37 14 -98 30 -135 36 -36 6 -89 19 -117 29 -231
83 -282 101 -290 101 -5 0 12 -23 38 -50 26 -28 60 -79 76 -113 71 -153 143
-501 125 -607 -9 -54 -30 -59 -31 -6 -1 72 -14 199 -28 261 -89 403 -108 439
-329 615 -34 27 -77 75 -107 122 -43 66 -141 168 -162 168 -3 0 -6 -79 -5
-175 2 -144 -1 -177 -13 -185 -8 -5 -18 -6 -23 -3 -4 3 -17 -3 -28 -13 -13
-12 -19 -13 -19 -4 0 10 -3 10 -15 0 -9 -7 -18 -10 -21 -7 -3 3 8 13 25 22 32
16 44 39 15 28 -14 -5 -14 -3 2 15 20 24 25 40 27 94 1 20 5 39 8 42 6 6 4 31
-5 81 -2 11 0 22 5 25 4 3 4 31 0 63 -6 43 -4 60 6 68 7 6 13 17 13 23 0 6 27
47 60 90 33 44 80 118 104 165 44 87 83 197 72 208 -3 4 0 13 6 21 10 11 8 16
-6 24 -13 8 -15 13 -5 24 9 11 8 14 -6 14 -12 0 -16 6 -12 19 4 18 -34 71 -51
71 -22 -1 -37 -22 -34 -52 2 -28 1 -30 -8 -15 -7 10 -8 31 -5 49 6 26 5 30
-10 25 -9 -4 -19 -7 -21 -7 -2 0 -2 -11 2 -24 4 -17 0 -27 -13 -36 -12 -7 -14
-13 -6 -16 8 -4 10 -21 6 -55 -5 -40 -3 -49 10 -49 9 0 19 -5 23 -11 4 -8 0
-9 -15 -4 -19 6 -21 4 -16 -24 3 -16 1 -33 -5 -36 -5 -3 -10 -19 -10 -34 0
-16 -6 -34 -14 -40 -8 -7 -18 -25 -21 -41 -7 -34 -53 -83 -71 -76 -7 3 -14 -1
-16 -9 -2 -11 -6 -11 -23 1 -20 15 -20 15 -1 30 11 8 14 14 7 14 -8 0 -9 5 -3
17 6 10 6 29 0 50 -5 18 -6 38 -2 45 4 7 3 8 -4 4 -7 -4 -12 -18 -12 -30 0
-30 -21 -48 -40 -36 -12 8 -13 13 -3 28 19 31 -5 47 -28 19 -17 -21 -17 -21
-14 -2 2 11 4 26 4 33 1 7 6 10 11 7 6 -3 10 3 10 14 0 12 7 21 16 21 19 0 56
-19 66 -34 5 -8 8 -7 8 1 0 7 14 26 30 43 26 26 30 38 30 83 0 29 5 58 12 65
9 9 9 12 0 12 -7 0 -12 8 -12 18 0 9 -14 30 -30 46 -17 15 -37 41 -45 57 -9
16 -34 47 -57 70 -43 42 -148 119 -163 119 -5 0 -17 7 -27 17 -12 11 -18 12
-18 4 0 -8 -6 -6 -17 4 -10 11 -18 36 -19 65 -1 27 -6 55 -10 62 -4 7 -9 19
-10 28 -1 8 -5 23 -9 32 -5 13 8 9 49 -16 64 -38 139 -52 227 -41 58 7 119 29
119 42 0 4 18 21 40 37 22 17 40 36 40 43 0 9 13 12 38 11 51 -2 62 7 62 47 0
40 -35 125 -51 125 -7 0 -9 9 -5 26 5 19 4 24 -6 19 -7 -4 -4 1 7 10 11 9 28
14 38 11 9 -2 17 -2 17 0 0 10 -57 54 -71 54 -9 0 -22 7 -29 15 -7 8 -19 15
-26 15 -8 0 -14 4 -14 9 0 5 -10 13 -22 17 -31 10 -118 12 -112 3z m-28 -206
c-10 -2 -28 -2 -40 0 -13 2 -5 4 17 4 22 1 32 -1 23 -4z m-81 -9 c-3 -3 -12
-4 -19 -1 -8 3 -5 6 6 6 11 1 17 -2 13 -5z m-60 -20 c-16 -9 -31 -13 -34 -10
-3 3 5 10 18 15 37 15 47 12 16 -5z m189 -42 c-4 -3 -14 2 -24 12 -16 18 -16
18 6 6 13 -6 21 -14 18 -18z m-201 -2 c-11 -18 8 -61 37 -81 34 -25 82 -20
116 11 22 21 48 28 37 10 -3 -5 -1 -10 5 -10 25 0 -2 -18 -42 -28 -90 -23
-201 -23 -166 0 10 7 10 10 -4 19 -10 5 -18 22 -18 36 0 14 8 32 18 39 21 16
25 17 17 4z m55 -10 c0 -11 -4 -20 -9 -20 -14 0 -23 18 -16 30 10 17 25 11 25
-10z m150 -10 c0 -5 -4 -10 -10 -10 -5 0 -10 5 -10 10 0 6 5 10 10 10 6 0 10
-4 10 -10z m40 0 c0 -5 -4 -10 -10 -10 -5 0 -10 5 -10 10 0 6 5 10 10 10 6 0
10 -4 10 -10z m230 -610 c0 -5 -2 -10 -4 -10 -3 0 -8 5 -11 10 -3 6 -1 10 4
10 6 0 11 -4 11 -10z m-345 -30 c3 -6 -1 -7 -9 -4 -18 7 -21 14 -7 14 6 0 13
-4 16 -10z m-38 -33 c2 -21 1 -21 -13 -3 -17 24 -18 37 -1 30 7 -2 13 -15 14
-27z m-47 13 c0 -5 -10 -10 -22 -10 -19 0 -20 2 -8 10 19 13 30 13 30 0z m386
-77 c-10 -10 -19 5 -10 18 6 11 8 11 12 0 2 -7 1 -15 -2 -18z m-406 -339 c0
-8 -4 -12 -10 -9 -5 3 -10 10 -10 16 0 5 5 9 10 9 6 0 10 -7 10 -16z m-174
-312 c-18 -16 -18 -16 -6 6 6 13 14 21 18 18 3 -4 -2 -14 -12 -24z"/>
<path d="M2246 3023 c-1 -2 -27 -4 -57 -4 -30 -1 -59 -6 -66 -11 -7 -5 -21 -7
-33 -3 -11 4 -20 2 -20 -4 0 -6 -9 -11 -21 -11 -13 0 -18 -4 -13 -12 5 -10 4
-10 -6 -1 -10 10 -17 10 -28 1 -13 -11 -23 -14 -82 -22 -14 -2 -29 -4 -33 -5
-5 0 -6 -5 -2 -10 3 -5 1 -12 -5 -16 -5 -3 -10 -1 -10 5 0 8 -6 8 -20 0 -11
-6 -20 -8 -20 -5 0 9 -78 -33 -86 -46 -5 -9 0 -10 17 -5 13 4 35 10 49 13 14
4 30 13 36 21 6 9 16 12 23 8 7 -5 20 -2 29 6 28 24 71 38 77 27 4 -5 16 -7
28 -3 20 6 20 5 -3 -14 l-25 -20 103 5 c61 3 102 2 102 -4 0 -5 -43 -24 -97
-43 -162 -55 -241 -113 -223 -165 6 -16 14 -11 56 34 58 62 138 103 208 108
l51 3 -51 -13 c-28 -8 -71 -25 -95 -39 -24 -14 -49 -24 -54 -22 -6 3 -27 -15
-46 -39 -33 -39 -34 -42 -15 -42 12 1 28 5 34 9 7 4 19 2 27 -4 8 -6 24 -10
37 -7 23 4 23 4 2 12 -27 8 -25 30 4 51 20 14 22 13 28 -11 3 -14 19 -32 35
-40 70 -37 145 2 137 71 -2 19 0 34 4 34 4 0 8 -4 8 -10 0 -5 5 -10 11 -10 29
0 51 -63 27 -74 -7 -4 11 -4 40 -2 68 6 78 13 56 37 -9 10 -12 19 -7 19 6 0
13 10 17 22 7 28 -28 82 -64 98 l-25 12 35 14 c18 8 40 12 47 10 13 -5 17 5
14 32 -1 6 5 12 13 12 8 0 18 5 22 12 5 7 3 8 -6 3 -8 -5 -19 0 -29 13 -12 15
-30 21 -74 24 -31 2 -59 3 -61 1z m-126 -253 c0 -21 -24 -28 -35 -10 -8 14 3
30 21 30 8 0 14 -9 14 -20z"/>
<path d="M1170 2805 c0 -9 9 -15 21 -15 18 0 19 2 9 15 -7 8 -16 15 -21 15 -5
0 -9 -7 -9 -15z"/>
<path d="M2194 2678 c-2 -3 -13 -4 -24 -1 -13 4 -20 0 -20 -10 0 -18 62 -29
95 -17 14 5 27 6 29 1 6 -9 -73 -51 -95 -51 -8 0 -21 -5 -29 -11 -25 -17 70 1
116 23 43 20 106 77 72 65 -10 -4 -18 -2 -18 4 0 11 -119 9 -126 -3z"/>
<path d="M2120 2660 c0 -5 5 -10 10 -10 6 0 10 5 10 10 0 6 -4 10 -10 10 -5 0
-10 -4 -10 -10z"/>
<path d="M1371 2617 c-7 -9 -11 -28 -9 -42 l3 -27 22 24 c20 21 21 27 10 42
-12 16 -14 16 -26 3z"/>
<path d="M2205 2249 c-62 -46 -78 -62 -102 -96 -59 -83 -74 -130 -54 -162 10
-15 14 -10 30 41 7 21 41 72 77 114 53 62 103 135 92 134 -2 0 -21 -14 -43
-31z"/>
<path d="M1405 2260 c3 -5 10 -10 16 -10 5 0 9 5 9 10 0 6 -7 10 -16 10 -8 0
-12 -4 -9 -10z"/>
<path d="M2411 2251 c-12 -8 -9 -12 13 -22 22 -10 31 -10 48 0 13 8 35 10 62
6 38 -5 40 -5 22 10 -22 17 -121 21 -145 6z"/>
<path d="M1560 2217 c0 -15 4 -27 8 -27 10 0 9 36 -1 46 -4 4 -7 -5 -7 -19z"/>
<path d="M3420 2180 c0 -5 5 -10 10 -10 6 0 10 5 10 10 0 6 -4 10 -10 10 -5 0
-10 -4 -10 -10z"/>
<path d="M1581 2124 c0 -11 3 -14 6 -6 3 7 2 16 -1 19 -3 4 -6 -2 -5 -13z"/>
<path d="M3416 2125 c-3 -8 -1 -15 4 -15 6 0 10 7 10 15 0 8 -2 15 -4 15 -2 0
-6 -7 -10 -15z"/>
<path d="M1890 2055 c0 -8 5 -15 10 -15 6 0 10 7 10 15 0 8 -4 15 -10 15 -5 0
-10 -7 -10 -15z"/>
<path d="M1615 2045 c4 -11 15 -39 23 -62 8 -24 19 -43 24 -43 6 0 7 7 4 16
-3 9 -6 21 -6 28 0 7 -12 28 -26 47 -15 19 -23 25 -19 14z"/>
<path d="M2365 1910 c3 -5 8 -10 11 -10 2 0 4 5 4 10 0 6 -5 10 -11 10 -5 0
-7 -4 -4 -10z"/>
<path d="M2670 1883 c0 -10 5 -25 10 -33 8 -12 10 -9 10 12 0 15 -4 30 -10 33
-5 3 -10 -2 -10 -12z"/>
<path d="M2650 1849 c0 -5 5 -7 10 -4 6 3 10 8 10 11 0 2 -4 4 -10 4 -5 0 -10
-5 -10 -11z"/>
<path d="M2905 1800 c3 -5 8 -10 11 -10 2 0 4 5 4 10 0 6 -5 10 -11 10 -5 0
-7 -4 -4 -10z"/>
<path d="M2704 1744 c4 -12 1 -14 -14 -9 -14 4 -20 2 -20 -9 0 -16 41 -18 52
-2 8 12 -1 36 -14 36 -6 0 -7 -7 -4 -16z"/>
<path d="M2740 1741 c0 -10 6 -21 13 -24 8 -3 14 0 14 7 0 6 -6 17 -14 24 -10
10 -13 9 -13 -7z"/>
<path d="M2190 1710 c0 -5 5 -10 10 -10 6 0 10 5 10 10 0 6 -4 10 -10 10 -5 0
-10 -4 -10 -10z"/>
<path d="M2995 1610 c3 -5 8 -10 11 -10 2 0 4 5 4 10 0 6 -5 10 -11 10 -5 0
-7 -4 -4 -10z"/>
<path d="M1627 1556 c-24 -25 -62 -80 -85 -123 -31 -59 -52 -87 -87 -112 -61
-43 -119 -123 -140 -191 -26 -84 -31 -287 -11 -450 18 -142 66 -338 98 -403
23 -46 18 -56 -17 -33 -66 44 -127 336 -129 626 -1 116 10 186 39 262 5 13 -6
10 -54 -13 -33 -16 -114 -47 -180 -69 -66 -22 -143 -51 -173 -64 -29 -13 -192
-69 -363 -126 -171 -56 -357 -124 -415 -151 l-105 -48 -3 -331 -2 -330 1280 0
c704 0 1280 3 1280 6 0 3 -39 45 -87 92 -49 47 -87 92 -85 100 2 8 -1 11 -7 8
-5 -3 -12 7 -16 23 -3 16 -13 32 -21 35 -8 3 -14 14 -12 23 2 13 -3 17 -16 15
-10 -2 -16 1 -13 6 3 4 -3 15 -15 23 -130 91 -273 240 -377 394 -110 163 -148
238 -196 379 -51 154 -63 239 -42 304 18 54 23 192 8 192 -5 0 -29 -20 -54
-44z"/>
<path d="M2189 1493 c-13 -16 -12 -17 4 -4 9 7 17 15 17 17 0 8 -8 3 -21 -13z"/>
<path d="M2240 1461 c0 -10 29 -36 34 -30 1 2 -6 12 -16 22 -10 9 -18 13 -18
8z"/>
<path d="M2360 1420 c0 -5 5 -10 10 -10 6 0 10 5 10 10 0 6 -4 10 -10 10 -5 0
-10 -4 -10 -10z"/>
<path d="M3055 749 c-4 -6 -5 -13 -2 -16 7 -7 27 6 27 18 0 12 -17 12 -25 -2z"/>
<path d="M2556 731 c-4 -5 -2 -12 3 -15 5 -4 12 -2 15 3 4 5 2 12 -3 15 -5 4
-12 2 -15 -3z"/>
</g>
</svg>
